<svg data-v-fde0c5aa="" xmlns="http://www.w3.org/2000/svg" viewBox="0 0 300 300" class="iconAbove"><!----><defs data-v-fde0c5aa=""><!----></defs><rect data-v-fde0c5aa="" fill="#772A5C" x="0" y="0" width="300px" height="300px" class="logo-background-square"></rect><defs data-v-fde0c5aa=""><!----></defs><g data-v-fde0c5aa="" id="6b633d31-d354-436b-a802-91302ec7e43d" fill="#ffffff" transform="matrix(6.328320597807977,0,0,6.328320597807977,15.77631535271891,168.1127820229529)"><path d="M2.44 10.18L3.99 10.18L6.37 14.35L7.69 14.35L5.19 10.12C6.75 9.97 7.60 8.96 7.60 7.39C7.60 5.63 6.62 4.58 4.82 4.58L1.26 4.58L1.26 14.35L2.44 14.35ZM2.44 9.18L2.44 5.60L4.79 5.60C5.77 5.60 6.36 6.12 6.36 7.03L6.36 7.76C6.36 8.67 5.77 9.18 4.79 9.18ZM16.10 14.35L16.10 13.37L15.09 13.37L15.09 9.39C15.09 7.87 14.01 6.96 12.32 6.96C10.85 6.96 9.93 7.66 9.56 8.41L10.32 8.97C10.70 8.32 11.28 7.91 12.25 7.91C13.34 7.91 13.97 8.46 13.97 9.51L13.97 10.22L12.43 10.22C10.26 10.22 9.32 10.99 9.32 12.32C9.32 13.68 10.29 14.52 11.80 14.52C12.98 14.52 13.66 14 13.97 13.17L14.04 13.17C14.13 13.85 14.46 14.35 15.33 14.35ZM12.00 13.58C11.07 13.58 10.50 13.19 10.50 12.45L10.50 12.15C10.50 11.45 11.10 11.06 12.43 11.06L13.97 11.06L13.97 12.25C13.97 12.99 13.15 13.58 12.00 13.58ZM17.92 14.35L24.08 14.35L24.08 13.40L21.56 13.40L21.56 3.99L17.92 3.99L17.92 4.94L20.44 4.94L20.44 13.40L17.92 13.40ZM29.85 5.53C30.49 5.53 30.73 5.22 30.73 4.82L30.73 4.59C30.73 4.19 30.49 3.88 29.85 3.88C29.20 3.88 28.97 4.19 28.97 4.59L28.97 4.82C28.97 5.22 29.20 5.53 29.85 5.53ZM26.68 14.35L32.84 14.35L32.84 13.40L30.41 13.40L30.41 7.13L26.68 7.13L26.68 8.08L29.29 8.08L29.29 13.40L26.68 13.40ZM35.74 14.35L36.92 12.66L37.72 11.51L37.77 11.51L38.60 12.66L39.82 14.35L41.16 14.35L38.44 10.67L41.09 7.13L39.80 7.13L38.72 8.65L37.88 9.86L37.83 9.86L36.96 8.65L35.87 7.13L34.52 7.13L37.14 10.68L34.45 14.35Z"></path></g><defs data-v-fde0c5aa=""><!----></defs><g data-v-fde0c5aa="" id="029dfacc-7eb4-469d-92b9-7cec7572595e" stroke="none" fill="#FFFFFF" transform="matrix(2.4073841053084335,0,0,2.4073841053084335,25.16028218010903,-23.559751585177935)"><path d="M18.887 26.402l50.194 5.42 23.748 13.597 1.418 2.696 7.61 3.896s-1.128 8.168-11.441 5.473l-16.81-5.537-14.984 10.1-6.24 20.294h-8.09V62.025H16.049L9.946 82.341H1.857V52.232l17.03-25.83z"></path><path d="M72.629 55.141l-9.157 13.234 5.072 13.966h8.201zM24.363 74.452l8.291-10.866 2.981 18.755h-8.232z"></path></g><!----></svg>